<svg xmlns="http://www.w3.org/2000/svg" fill="none" viewBox="0 0 31 36"><mask id="a" width="31" height="36" x="0" y="0" maskUnits="userSpaceOnUse" style="mask-type:luminance"><path fill="#fff" d="M30.147 0H0v36h30.147V0Z"/></mask><g fill="#941216" mask="url(#a)"><path d="M14.483 27.8a.837.837 0 0 0 .12-1.17l-.77-.96 2.57-2.08a1.87 1.87 0 0 1 1.2-.42 1.894 1.894 0 0 1 1.5.71l.78.95-.79.64a.825.825 0 0 0-.3.57.914.914 0 0 0 .18.61l2.18 2.69a.89.89 0 0 0 .26.21.826.826 0 0 0 .38.1.882.882 0 0 0 .53-.19l2.75-2.23a.798.798 0 0 0 .31-.56.874.874 0 0 0-.18-.62l-.7-.86-1.47-1.82a.849.849 0 0 0-1.18-.13l-.67.55-.77-.97a3.616 3.616 0 0 0-5.07-.53l-2.57 2.07-.77-.95a.833.833 0 0 0-.66-.31.842.842 0 0 0-.52.18l-4.42 3.58-1.31 1.06-3.94 3.17a.832.832 0 0 0-.12 1.18l.78.97-1.5 1.2a.842.842 0 0 0-.13 1.18.85.85 0 0 0 1.18.13l1.5-1.22.77.97a.876.876 0 0 0 .57.31h.08c.194 0 .38-.067.53-.19l4.51-3.64 1.41-1.15 3.75-3.03ZM30.113 34.92c-.15-.5-.49-1.59-.87-2.65a10.926 10.926 0 0 0-1.1-2.49 2.466 2.466 0 0 0-1.66-.9 2.434 2.434 0 0 0-.27-.01 2.518 2.518 0 0 0-1.55.54 2.478 2.478 0 0 0-.37 3.48c.62.78 3.69 2.5 4.62 3.01a.79.79 0 0 0 .4.1.939.939 0 0 0 .53-.18.871.871 0 0 0 .27-.9Z"/><path d="M5.82 25.71a9.998 9.998 0 0 1-.804-3.943V9.21A2.475 2.475 0 0 1 7.42 6.706a.51.51 0 0 0 .109-.008h15.086c.026 0 .05.008.084.008.481.016.947.173 1.34.452a2.477 2.477 0 0 1 1.071 2.051v12.558a10.602 10.602 0 0 1-.184 1.943l1.256 1.557c.017.025.033.042.05.067.368-1.153.554-2.356.553-3.567V9.21a4.163 4.163 0 0 0-3.491-4.119 9.205 9.205 0 0 0-16.468 0 4.155 4.155 0 0 0-3.483 4.12v12.557c0 1.74.386 3.46 1.13 5.032l1.348-1.088Zm9.243-24.036a7.543 7.543 0 0 1 6.262 3.35H8.801a7.52 7.52 0 0 1 6.262-3.35ZM21.794 30.901a2.11 2.11 0 0 1-1.457-.594 9.871 9.871 0 0 1-5.274 1.507c-1.01 0-2.016-.152-2.98-.452h-.009l-1.507 1.23a11.702 11.702 0 0 0 11.972-1.808.27.27 0 0 0 .075-.067.087.087 0 0 1-.067.034c-.238.1-.494.15-.753.15Z"/><path d="M8.363 11.72h13.39a.84.84 0 0 1 .84.84v5.86a.84.84 0 0 1-.84.84H8.363a.84.84 0 0 1-.84-.84v-5.86a.84.84 0 0 1 .84-.84Z"/></g></svg>